<mxfile host="65bd71144e">
    <diagram id="dnxQYR4wMp4HuTDzdL08" name="Page-1">
        <mxGraphModel dx="1255" dy="1193" grid="1" gridSize="10" guides="1" tooltips="1" connect="1" arrows="1" fold="1" page="1" pageScale="1" pageWidth="850" pageHeight="1100" math="0" shadow="0">
            <root>
                <mxCell id="0"/>
                <mxCell id="1" parent="0"/>
                <mxCell id="15" value="" style="group" vertex="1" connectable="0" parent="1">
                    <mxGeometry x="40" y="60" width="270" height="600" as="geometry"/>
                </mxCell>
                <mxCell id="13" value="Incluir Débitos" style="shape=umlFrame;whiteSpace=wrap;html=1;" vertex="1" parent="15">
                    <mxGeometry width="270" height="520" as="geometry"/>
                </mxCell>
                <mxCell id="4" value="" style="ellipse;html=1;shape=startState;fillColor=#000000;strokeColor=#ff0000;" vertex="1" parent="15">
                    <mxGeometry x="120" y="80" width="30" height="30" as="geometry"/>
                </mxCell>
                <mxCell id="5" value="" style="edgeStyle=orthogonalEdgeStyle;html=1;verticalAlign=bottom;endArrow=open;endSize=8;strokeColor=#ff0000;" edge="1" source="4" parent="15" target="6">
                    <mxGeometry relative="1" as="geometry">
                        <mxPoint x="135" y="170" as="targetPoint"/>
                    </mxGeometry>
                </mxCell>
                <mxCell id="6" value="Solicita Incluir Débitos" style="rounded=1;whiteSpace=wrap;html=1;arcSize=40;fontColor=#000000;fillColor=#ffffc0;strokeColor=#ff0000;" vertex="1" parent="15">
                    <mxGeometry x="75" y="160" width="120" height="40" as="geometry"/>
                </mxCell>
                <mxCell id="7" value="" style="edgeStyle=orthogonalEdgeStyle;html=1;verticalAlign=bottom;endArrow=open;endSize=8;strokeColor=#ff0000;entryX=0.5;entryY=0;entryDx=0;entryDy=0;" edge="1" source="6" parent="15" target="8">
                    <mxGeometry relative="1" as="geometry">
                        <mxPoint x="135" y="280" as="targetPoint"/>
                    </mxGeometry>
                </mxCell>
                <mxCell id="8" value="Informa o Valor" style="rounded=1;whiteSpace=wrap;html=1;arcSize=40;fontColor=#000000;fillColor=#ffffc0;strokeColor=#ff0000;" vertex="1" parent="15">
                    <mxGeometry x="75" y="260" width="120" height="40" as="geometry"/>
                </mxCell>
                <mxCell id="9" value="" style="edgeStyle=orthogonalEdgeStyle;html=1;verticalAlign=bottom;endArrow=open;endSize=8;strokeColor=#ff0000;" edge="1" source="8" parent="15" target="10">
                    <mxGeometry relative="1" as="geometry">
                        <mxPoint x="135" y="380" as="targetPoint"/>
                    </mxGeometry>
                </mxCell>
                <mxCell id="10" value="Mostra o novo Saldo" style="rounded=1;whiteSpace=wrap;html=1;arcSize=40;fontColor=#000000;fillColor=#ffffc0;strokeColor=#ff0000;" vertex="1" parent="15">
                    <mxGeometry x="75" y="350" width="120" height="40" as="geometry"/>
                </mxCell>
                <mxCell id="11" value="" style="edgeStyle=orthogonalEdgeStyle;html=1;verticalAlign=bottom;endArrow=open;endSize=8;strokeColor=#ff0000;" edge="1" source="10" parent="15" target="21">
                    <mxGeometry relative="1" as="geometry">
                        <mxPoint x="140" y="520" as="targetPoint"/>
                    </mxGeometry>
                </mxCell>
                <mxCell id="14" style="edgeStyle=none;html=1;" edge="1" parent="15" source="13" target="13">
                    <mxGeometry relative="1" as="geometry"/>
                </mxCell>
                <mxCell id="21" value="" style="ellipse;html=1;shape=endState;fillColor=#000000;strokeColor=#ff0000;" vertex="1" parent="15">
                    <mxGeometry x="120" y="430" width="30" height="30" as="geometry"/>
                </mxCell>
                <mxCell id="32" value="" style="group" vertex="1" connectable="0" parent="1">
                    <mxGeometry x="350" y="60" width="210" height="600" as="geometry"/>
                </mxCell>
                <mxCell id="16" value="Incluir Créditos" style="shape=umlFrame;whiteSpace=wrap;html=1;" vertex="1" parent="32">
                    <mxGeometry width="210" height="520" as="geometry"/>
                </mxCell>
                <mxCell id="23" value="" style="ellipse;html=1;shape=startState;fillColor=#000000;strokeColor=#ff0000;" vertex="1" parent="32">
                    <mxGeometry x="90" y="60" width="30" height="30" as="geometry"/>
                </mxCell>
                <mxCell id="24" value="" style="edgeStyle=orthogonalEdgeStyle;html=1;verticalAlign=bottom;endArrow=open;endSize=8;strokeColor=#ff0000;" edge="1" parent="32" source="23" target="25">
                    <mxGeometry relative="1" as="geometry">
                        <mxPoint x="65" y="90" as="targetPoint"/>
                    </mxGeometry>
                </mxCell>
                <mxCell id="25" value="Solicita Incluir Créditos" style="rounded=1;whiteSpace=wrap;html=1;arcSize=40;fontColor=#000000;fillColor=#ffffc0;strokeColor=#ff0000;" vertex="1" parent="32">
                    <mxGeometry x="45" y="140" width="120" height="40" as="geometry"/>
                </mxCell>
                <mxCell id="26" value="" style="edgeStyle=orthogonalEdgeStyle;html=1;verticalAlign=bottom;endArrow=open;endSize=8;strokeColor=#ff0000;entryX=0.5;entryY=0;entryDx=0;entryDy=0;" edge="1" parent="32" source="25" target="27">
                    <mxGeometry relative="1" as="geometry">
                        <mxPoint x="65" y="200" as="targetPoint"/>
                    </mxGeometry>
                </mxCell>
                <mxCell id="27" value="Informa o Valor" style="rounded=1;whiteSpace=wrap;html=1;arcSize=40;fontColor=#000000;fillColor=#ffffc0;strokeColor=#ff0000;" vertex="1" parent="32">
                    <mxGeometry x="45" y="240" width="120" height="40" as="geometry"/>
                </mxCell>
                <mxCell id="28" value="" style="edgeStyle=orthogonalEdgeStyle;html=1;verticalAlign=bottom;endArrow=open;endSize=8;strokeColor=#ff0000;" edge="1" parent="32" source="27" target="29">
                    <mxGeometry relative="1" as="geometry">
                        <mxPoint x="65" y="300" as="targetPoint"/>
                    </mxGeometry>
                </mxCell>
                <mxCell id="29" value="Mostra o novo Saldo" style="rounded=1;whiteSpace=wrap;html=1;arcSize=40;fontColor=#000000;fillColor=#ffffc0;strokeColor=#ff0000;" vertex="1" parent="32">
                    <mxGeometry x="45" y="330" width="120" height="40" as="geometry"/>
                </mxCell>
                <mxCell id="30" value="" style="edgeStyle=orthogonalEdgeStyle;html=1;verticalAlign=bottom;endArrow=open;endSize=8;strokeColor=#ff0000;" edge="1" parent="32" source="29" target="31">
                    <mxGeometry relative="1" as="geometry">
                        <mxPoint x="70" y="440" as="targetPoint"/>
                    </mxGeometry>
                </mxCell>
                <mxCell id="31" value="" style="ellipse;html=1;shape=endState;fillColor=#000000;strokeColor=#ff0000;" vertex="1" parent="32">
                    <mxGeometry x="90" y="410" width="30" height="30" as="geometry"/>
                </mxCell>
                <mxCell id="33" value="" style="group" vertex="1" connectable="0" parent="1">
                    <mxGeometry x="600" y="61" width="210" height="600" as="geometry"/>
                </mxCell>
                <mxCell id="34" value="Visualizar Relatório" style="shape=umlFrame;whiteSpace=wrap;html=1;" vertex="1" parent="33">
                    <mxGeometry width="210" height="520" as="geometry"/>
                </mxCell>
                <mxCell id="35" value="" style="ellipse;html=1;shape=startState;fillColor=#000000;strokeColor=#ff0000;" vertex="1" parent="33">
                    <mxGeometry x="90" y="60" width="30" height="30" as="geometry"/>
                </mxCell>
                <mxCell id="36" value="" style="edgeStyle=orthogonalEdgeStyle;html=1;verticalAlign=bottom;endArrow=open;endSize=8;strokeColor=#ff0000;" edge="1" parent="33" source="35" target="37">
                    <mxGeometry relative="1" as="geometry">
                        <mxPoint x="65" y="90" as="targetPoint"/>
                    </mxGeometry>
                </mxCell>
                <mxCell id="37" value="Solicita Visualizar Relatório" style="rounded=1;whiteSpace=wrap;html=1;arcSize=40;fontColor=#000000;fillColor=#ffffc0;strokeColor=#ff0000;" vertex="1" parent="33">
                    <mxGeometry x="45" y="140" width="120" height="40" as="geometry"/>
                </mxCell>
                <mxCell id="38" value="" style="edgeStyle=orthogonalEdgeStyle;html=1;verticalAlign=bottom;endArrow=open;endSize=8;strokeColor=#ff0000;entryX=0.5;entryY=0;entryDx=0;entryDy=0;" edge="1" parent="33" source="37" target="39">
                    <mxGeometry relative="1" as="geometry">
                        <mxPoint x="65" y="200" as="targetPoint"/>
                    </mxGeometry>
                </mxCell>
                <mxCell id="39" value="Informa a Data" style="rounded=1;whiteSpace=wrap;html=1;arcSize=40;fontColor=#000000;fillColor=#ffffc0;strokeColor=#ff0000;" vertex="1" parent="33">
                    <mxGeometry x="45" y="240" width="120" height="40" as="geometry"/>
                </mxCell>
                <mxCell id="40" value="" style="edgeStyle=orthogonalEdgeStyle;html=1;verticalAlign=bottom;endArrow=open;endSize=8;strokeColor=#ff0000;" edge="1" parent="33" source="39" target="41">
                    <mxGeometry relative="1" as="geometry">
                        <mxPoint x="65" y="300" as="targetPoint"/>
                    </mxGeometry>
                </mxCell>
                <mxCell id="41" value="Visualiza Débitos e Créditos, Saldo Consolidado na Data Informada" style="rounded=1;whiteSpace=wrap;html=1;arcSize=40;fontColor=#000000;fillColor=#ffffc0;strokeColor=#ff0000;" vertex="1" parent="33">
                    <mxGeometry x="45" y="330" width="120" height="70" as="geometry"/>
                </mxCell>
                <mxCell id="42" value="" style="edgeStyle=orthogonalEdgeStyle;html=1;verticalAlign=bottom;endArrow=open;endSize=8;strokeColor=#ff0000;" edge="1" parent="33" source="41" target="43">
                    <mxGeometry relative="1" as="geometry">
                        <mxPoint x="70" y="440" as="targetPoint"/>
                    </mxGeometry>
                </mxCell>
                <mxCell id="43" value="" style="ellipse;html=1;shape=endState;fillColor=#000000;strokeColor=#ff0000;" vertex="1" parent="33">
                    <mxGeometry x="90" y="439" width="30" height="30" as="geometry"/>
                </mxCell>
            </root>
        </mxGraphModel>
    </diagram>
</mxfile>